<svg width="150px" 
     height="50px" 
     viewBox="0.0 0.0 150.00 50.00" 
     viewPort = "0 0 150 50" 
     xmlns="http://www.w3.org/2000/svg" version="1.1">
    <defs>
        <g id="array">
        <rect x="5" y="5" width="15" height="6" style="fill:none;stroke:black;stroke-width:0.6px;"/>
        <text x="5" y="10" font-size="3">Bit position</text>
        <rect x="20" y="5" width="128" height="6" style="fill:none;stroke:blue;stroke-width:0.6px;"/>
        <text x="28" y="10" font-size="4">31:25</text>
        <line x1="48" y1="5" x2="48" y2="11" style="fill:none;stroke:blue;stroke-width:0.6px;"/>
        <text x="52" y="10" font-size="4">24:20</text>
        <line x1="66" y1="5" x2="66" y2="11" style="fill:none;stroke:blue;stroke-width:0.6px;"/>
        <text x="70" y="10" font-size="4">19:15</text>
        <line x1="82" y1="5" x2="82" y2="11" style="fill:none;stroke:blue;stroke-width:0.6px;"/>
        <text x="83" y="10" font-size="4">14:12</text>
        <line x1="94" y1="5" x2="94" y2="11" style="fill:none;stroke:blue;stroke-width:0.6px;"/>
        <text x="100" y="10" font-size="4">11:7</text>
        <line x1="110" y1="5" x2="110" y2="11" style="fill:none;stroke:blue;stroke-width:0.6px;"/>
        <text x="125" y="10" font-size="4">6:0</text>
        </g>
    </defs>
    <use x="0" y="0" href="#array"/>
    <rect x="20" y="15" width="128" height="6" style="fill:none;stroke:black;stroke-width:0.6px;"/>
    <text x="6" y="20" font-size="4">R-type</text>
    <line x1="48" y1="15" x2="48" y2="21" style="fill:none;stroke:black;stroke-width:0.6px;"/>
    <text x="28" y="20" font-size="4">funct7</text>
    <line x1="66" y1="15" x2="66" y2="21" style="fill:none;stroke:black;stroke-width:0.6px;"/>
    <text x="52" y="20" font-size="4">rs2</text>
    <line x1="82" y1="15" x2="82" y2="21" style="fill:none;stroke:black;stroke-width:0.6px;"/>
    <text x="72" y="20" font-size="4">rs1</text>
    <line x1="82" y1="15" x2="82" y2="21" style="fill:none;stroke:black;stroke-width:0.6px;"/>
    <text x="83" y="20" font-size="4">funct3</text>
    <line x1="94" y1="15" x2="94" y2="21" style="fill:none;stroke:black;stroke-width:0.6px;"/>
    <text x="100" y="20" font-size="4">rd</text>
    <line x1="110" y1="15" x2="110" y2="21" style="fill:none;stroke:black;stroke-width:0.6px;"/>
    <text x="125" y="20" font-size="4">opcode</text>
    
    <rect x="20" y="25" width="128" height="6" style="fill:none;stroke:black;stroke-width:0.6px;"/>
    <text x="6" y="30" font-size="4">I-type</text>
    <text x="25" y="30" font-size="4">Immediate[11:0]</text>
    <line x1="66" y1="25" x2="66" y2="31" style="fill:none;stroke:black;stroke-width:0.6px;"/>
    <line x1="82" y1="25" x2="82" y2="31" style="fill:none;stroke:black;stroke-width:0.6px;"/>
    <text x="72" y="30" font-size="4">rs1</text>
    <line x1="82" y1="25" x2="82" y2="31" style="fill:none;stroke:black;stroke-width:0.6px;"/>
    <text x="83" y="30" font-size="4">funct3</text>
    <line x1="94" y1="25" x2="94" y2="31" style="fill:none;stroke:black;stroke-width:0.6px;"/>
    <text x="100" y="30" font-size="4">rd</text>
    <line x1="110" y1="25" x2="110" y2="31" style="fill:none;stroke:black;stroke-width:0.6px;"/>
    <text x="125" y="30" font-size="4">opcode</text>
    
    <rect x="20" y="35" width="128" height="6" style="fill:none;stroke:black;stroke-width:0.6px;"/>
    <text x="6" y="40" font-size="4">S-type</text>
    <text x="21" y="40" font-size="4">Immediate[11:5]</text>
    <line x1="48" y1="35" x2="48" y2="41" style="fill:none;stroke:black;stroke-width:0.6px;"/>
    <text x="52" y="40" font-size="4">rs2</text>
    <line x1="66" y1="35" x2="66" y2="41" style="fill:none;stroke:black;stroke-width:0.6px;"/>
    <line x1="82" y1="35" x2="82" y2="41" style="fill:none;stroke:black;stroke-width:0.6px;"/>
    <text x="72" y="40" font-size="4">rs1</text>
    <line x1="82" y1="35" x2="82" y2="41" style="fill:none;stroke:black;stroke-width:0.6px;"/>
    <text x="83" y="40" font-size="4">funct3</text>
    <line x1="94" y1="35" x2="94" y2="41" style="fill:none;stroke:black;stroke-width:0.6px;"/>
    <text x="100" y="40" font-size="3">immed[4:0]</text>
    <line x1="110" y1="35" x2="110" y2="41" style="fill:none;stroke:black;stroke-width:0.6px;"/>
    <text x="125" y="40" font-size="4">opcode</text>
</svg>

