<svg width="200.00" height="100.00" 
     viewBox="0.0 0.0 200.0 100.0" 
     viewPort="0 0 200px 100px" 
     version="1.1"
     xmlns="http://www.w3.org/2000/svg">
    <text x="3" y="63" font-size="10">1</text>
    <circle cx="12" cy="60" r="3" stroke="black"/>
    <line x1="12" y1="60" x2="40" y2="60" stroke="black" stroke-width="2px"/>
    <circle cx="40" cy="60" r="3" stroke="black"/>
    <polyline 
        points="65,90 40,90 40,30 65,30 65,20 95,20 95,30 120,30 120,90 95,90  
        95,80 65,80  65,90 40,90" stroke="black" fill="none" stroke-width="2x"/>
    <line x1="65" y1="17" x2="95" y2="17" stroke="black"/>
    <line x1="80" y1="17" x2="80" y2="7" stroke="black"/>
    <text x="76" y="6" font-size="10">A</text>

    <line x1="65" y1="77" x2="95" y2="77" stroke="black"/>
    <line x1="80" y1="77" x2="80" y2="67" stroke="black"/>
    <text x="76" y="66" font-size="10">B</text>
    <circle cx="120" cy="60" r="3" stroke="black"/>
    <line x1="120" y1="60" x2="150" y2="60" stroke="black" stroke-width="2px"/>
    <circle cx="150" cy="60" r="3" stroke="black"/>
    <text x="155" y="63" font-size="10">Q</text>
</svg>
