<svg width="200.00" height="100.00" 
     viewBox="0.0 0.0 200.0 100.0" 
     viewPort="0 0 200px 100px" 
     version="1.1"
     xmlns="http://www.w3.org/2000/svg">
<defs>
    <marker id="arrow" markerWidth="10" markerHeight="10" refX="0" refY="1" orient="auto" markerUnits="strokeWidth">
      <path d="M0,0 L0,2 L3,1 z" fill="black" />
    </marker>
  </defs>
  <g
     id="g854"
     transform="translate(7.1424927,9.0471575)">
    <g
       transform="translate(17.380066,-13.332653)"
       id="g842">
      <circle
         style="fill:none;stroke:#000000;stroke-width:2px"
         cx="10"
         cy="75"
         r="15"
         id="circle2" />
      <polyline
         style="fill:none;stroke:#000000;stroke-width:2px"
         points=" 80,50 150,50, 150,100 10,100, 10,50  10,50 60,50"
      id="polyline4" />
       <circle
         style="fill:black;stroke:#000000;stroke-width:2px"
         cx="150"
         cy="50"
         r="2"
         id="joint"/>
      <polyline points="150,50 150,40 160,40" style="fill:none;stroke:black;stroke-width:2px;"/>
      <circle
         style="fill:black;stroke:#000000;stroke-width:2px"
         cx="160"
         cy="40"
         r="2"
         id="circleQ"/>
      <text
         style="font-size:11px"
         x="165"
         y="40"
         font-size="11"
         id="textQ">Q</text>
      <rect x="146" y="58" width="8" height="18" style="stroke:black;stroke-width:2;fill:white;fill-opacity:1"/>
      <polygon points="146,85  154,85 150,89  146,85" style="stroke:black;fill:black;"/> 
      <line x1="146" y1="90" x2="154" y2="90" style="stroke:black;stroke-width:2"/>
      <line x1="156" y1="86" x2="158" y2="87" style="stroke:black;stroke-width:1" marker-end="url(#arrow)"/>
      <line x1="156" y1="90" x2="158" y2="91" style="stroke:black;stroke-width:1" marker-end="url(#arrow)"/>
      <line
         style="stroke:#000000;stroke-width:2px"
         x1="10"
         y1="50"
         x2="30"
         y2="50"
         id="line6" />

      <polyline points="50,50 50,75 60,75" style="fill:none;stroke:black;stroke-width:2px;"/>
      <circle
         style="fill:black;stroke:#000000;stroke-width:2px"
         cx="50"
         cy="50"
         r="2"
         id="joint"/>
      <polyline points="100,50 100,75 80,75" style="fill:none;stroke:black;stroke-width:2px;"/>
      <circle
         style="fill:black;stroke:#000000;stroke-width:2px"
         cx="100"
         cy="50"
         r="2"
         id="joint"/>
      <text
         style="font-size:11px"
         x="60"
         y="40"
         font-size="11"
         id="text14">A</text>
      <line
         style="stroke:#000000;stroke-width:2px"
         x1="60"
         y1="50"
         x2="80"
         y2="40"
         id="switchA" />
      <text
         style="font-size:11px"
         x="60"
         y="65"
         font-size="11"
         id="text14">B</text>
      <line
         style="stroke:#000000;stroke-width:2px"
         x1="60"
         y1="75"
         x2="80"
         y2="65"
         id="switchB" />
      
      <line
         style="stroke:#000000;stroke-width:2px"
         x1="120"
         y1="50"
         x2="150"
         y2="50"
         id="line18" />
    </g>
  </g>
</svg>
